<mxfile host="app.diagrams.net" agent="Mozilla/5.0 (Windows NT 10.0; Win64; x64) AppleWebKit/537.36 (KHTML, like Gecko) Chrome/137.0.0.0 Safari/537.36 Edg/137.0.0.0" version="27.1.4">
  <diagram name="Page-1" id="1bXKv3V9rw8m9Mc6eF35">
    <mxGraphModel dx="864" dy="474" grid="1" gridSize="10" guides="1" tooltips="1" connect="1" arrows="1" fold="1" page="1" pageScale="1" pageWidth="827" pageHeight="1169" math="0" shadow="0">
      <root>
        <mxCell id="0" />
        <mxCell id="1" parent="0" />
        <mxCell id="PNRTfmVPLUZ2PuYeLQSz-5" style="edgeStyle=orthogonalEdgeStyle;rounded=0;orthogonalLoop=1;jettySize=auto;html=1;exitX=0.5;exitY=1;exitDx=0;exitDy=0;" edge="1" parent="1" source="PNRTfmVPLUZ2PuYeLQSz-1">
          <mxGeometry relative="1" as="geometry">
            <mxPoint x="100" y="140" as="targetPoint" />
          </mxGeometry>
        </mxCell>
        <mxCell id="PNRTfmVPLUZ2PuYeLQSz-1" value="Mulai" style="rounded=1;whiteSpace=wrap;html=1;" vertex="1" parent="1">
          <mxGeometry x="40" y="20" width="120" height="60" as="geometry" />
        </mxCell>
        <mxCell id="PNRTfmVPLUZ2PuYeLQSz-7" style="edgeStyle=orthogonalEdgeStyle;rounded=0;orthogonalLoop=1;jettySize=auto;html=1;exitX=0.5;exitY=1;exitDx=0;exitDy=0;entryX=0.5;entryY=0;entryDx=0;entryDy=0;" edge="1" parent="1" source="PNRTfmVPLUZ2PuYeLQSz-2" target="PNRTfmVPLUZ2PuYeLQSz-6">
          <mxGeometry relative="1" as="geometry" />
        </mxCell>
        <mxCell id="PNRTfmVPLUZ2PuYeLQSz-2" value="Jumlah buku = 10" style="rounded=0;whiteSpace=wrap;html=1;" vertex="1" parent="1">
          <mxGeometry x="40" y="140" width="120" height="60" as="geometry" />
        </mxCell>
        <mxCell id="PNRTfmVPLUZ2PuYeLQSz-9" style="edgeStyle=orthogonalEdgeStyle;rounded=0;orthogonalLoop=1;jettySize=auto;html=1;exitX=0.5;exitY=1;exitDx=0;exitDy=0;" edge="1" parent="1" source="PNRTfmVPLUZ2PuYeLQSz-6">
          <mxGeometry relative="1" as="geometry">
            <mxPoint x="100" y="350" as="targetPoint" />
          </mxGeometry>
        </mxCell>
        <mxCell id="PNRTfmVPLUZ2PuYeLQSz-6" value="Perintah ibu, &quot;Baca semua buku&quot;" style="rounded=0;whiteSpace=wrap;html=1;" vertex="1" parent="1">
          <mxGeometry x="40" y="250" width="120" height="60" as="geometry" />
        </mxCell>
        <mxCell id="PNRTfmVPLUZ2PuYeLQSz-11" style="edgeStyle=orthogonalEdgeStyle;rounded=0;orthogonalLoop=1;jettySize=auto;html=1;exitX=0.5;exitY=1;exitDx=0;exitDy=0;" edge="1" parent="1">
          <mxGeometry relative="1" as="geometry">
            <mxPoint x="99.5" y="500" as="targetPoint" />
            <mxPoint x="99.5" y="410" as="sourcePoint" />
          </mxGeometry>
        </mxCell>
        <mxCell id="PNRTfmVPLUZ2PuYeLQSz-10" value="Jumlah buku yang dibaca = 0" style="rounded=0;whiteSpace=wrap;html=1;" vertex="1" parent="1">
          <mxGeometry x="40" y="350" width="120" height="60" as="geometry" />
        </mxCell>
        <mxCell id="PNRTfmVPLUZ2PuYeLQSz-13" value="Tidak" style="edgeStyle=orthogonalEdgeStyle;rounded=0;orthogonalLoop=1;jettySize=auto;html=1;" edge="1" parent="1" source="PNRTfmVPLUZ2PuYeLQSz-12">
          <mxGeometry relative="1" as="geometry">
            <mxPoint x="230" y="560" as="targetPoint" />
          </mxGeometry>
        </mxCell>
        <mxCell id="PNRTfmVPLUZ2PuYeLQSz-22" style="edgeStyle=orthogonalEdgeStyle;rounded=0;orthogonalLoop=1;jettySize=auto;html=1;exitX=0.5;exitY=1;exitDx=0;exitDy=0;" edge="1" parent="1" source="PNRTfmVPLUZ2PuYeLQSz-12" target="PNRTfmVPLUZ2PuYeLQSz-23">
          <mxGeometry relative="1" as="geometry">
            <mxPoint x="100" y="700" as="targetPoint" />
          </mxGeometry>
        </mxCell>
        <mxCell id="PNRTfmVPLUZ2PuYeLQSz-12" value="Jumlah yang dibaca = jumlah buku?" style="rhombus;whiteSpace=wrap;html=1;" vertex="1" parent="1">
          <mxGeometry x="30" y="500" width="140" height="120" as="geometry" />
        </mxCell>
        <mxCell id="PNRTfmVPLUZ2PuYeLQSz-16" style="edgeStyle=orthogonalEdgeStyle;rounded=0;orthogonalLoop=1;jettySize=auto;html=1;exitX=1;exitY=0.5;exitDx=0;exitDy=0;" edge="1" parent="1" source="PNRTfmVPLUZ2PuYeLQSz-14">
          <mxGeometry relative="1" as="geometry">
            <mxPoint x="400" y="560" as="targetPoint" />
          </mxGeometry>
        </mxCell>
        <mxCell id="PNRTfmVPLUZ2PuYeLQSz-18" value="" style="edgeStyle=orthogonalEdgeStyle;rounded=0;orthogonalLoop=1;jettySize=auto;html=1;" edge="1" parent="1" source="PNRTfmVPLUZ2PuYeLQSz-14" target="PNRTfmVPLUZ2PuYeLQSz-17">
          <mxGeometry relative="1" as="geometry" />
        </mxCell>
        <mxCell id="PNRTfmVPLUZ2PuYeLQSz-14" value="Baca 1 buku yang belum dibaca" style="rounded=0;whiteSpace=wrap;html=1;" vertex="1" parent="1">
          <mxGeometry x="230" y="530" width="120" height="60" as="geometry" />
        </mxCell>
        <mxCell id="PNRTfmVPLUZ2PuYeLQSz-17" value="Jumlah buku yang dibaca = jumlah buku yang dibaca + 1" style="whiteSpace=wrap;html=1;rounded=0;" vertex="1" parent="1">
          <mxGeometry x="390" y="530" width="120" height="60" as="geometry" />
        </mxCell>
        <mxCell id="PNRTfmVPLUZ2PuYeLQSz-20" value="" style="endArrow=none;html=1;rounded=0;" edge="1" parent="1">
          <mxGeometry width="50" height="50" relative="1" as="geometry">
            <mxPoint x="449.5" y="530" as="sourcePoint" />
            <mxPoint x="449.5" y="450" as="targetPoint" />
          </mxGeometry>
        </mxCell>
        <mxCell id="PNRTfmVPLUZ2PuYeLQSz-21" value="" style="endArrow=none;html=1;rounded=0;" edge="1" parent="1">
          <mxGeometry width="50" height="50" relative="1" as="geometry">
            <mxPoint x="100" y="450" as="sourcePoint" />
            <mxPoint x="450" y="450" as="targetPoint" />
          </mxGeometry>
        </mxCell>
        <mxCell id="PNRTfmVPLUZ2PuYeLQSz-26" style="edgeStyle=orthogonalEdgeStyle;rounded=0;orthogonalLoop=1;jettySize=auto;html=1;exitX=0.5;exitY=1;exitDx=0;exitDy=0;" edge="1" parent="1" source="PNRTfmVPLUZ2PuYeLQSz-23">
          <mxGeometry relative="1" as="geometry">
            <mxPoint x="100" y="790" as="targetPoint" />
          </mxGeometry>
        </mxCell>
        <mxCell id="PNRTfmVPLUZ2PuYeLQSz-23" value="Laporkan pada ibu bahwa semua buku telah dibaca" style="rounded=0;whiteSpace=wrap;html=1;" vertex="1" parent="1">
          <mxGeometry x="40" y="670" width="120" height="60" as="geometry" />
        </mxCell>
        <mxCell id="PNRTfmVPLUZ2PuYeLQSz-27" value="Selesai" style="rounded=1;whiteSpace=wrap;html=1;" vertex="1" parent="1">
          <mxGeometry x="40" y="790" width="120" height="60" as="geometry" />
        </mxCell>
      </root>
    </mxGraphModel>
  </diagram>
</mxfile>
